<?xml version="1.0" encoding="utf-8"?>
<!-- Generator: Adobe Illustrator 15.0.0, SVG Export Plug-In  -->
<!DOCTYPE svg PUBLIC "-//W3C//DTD SVG 1.1//EN" "http://www.w3.org/Graphics/SVG/1.1/DTD/svg11.dtd" [
	<!ENTITY ns_flows "http://ns.adobe.com/Flows/1.0/">
]>
<svg version="1.1"
	 xmlns="http://www.w3.org/2000/svg" xmlns:xlink="http://www.w3.org/1999/xlink" xmlns:a="http://ns.adobe.com/AdobeSVGViewerExtensions/3.0/"
	 x="0px" y="0px" width="1024px" height="768px" viewBox="-169.64 -10.601 1024 768"
	 overflow="visible" enable-background="new -169.64 -10.601 1024 768" xml:space="preserve">
<defs>
</defs>
<path fill-rule="evenodd" clip-rule="evenodd" d="M268.406,411.952c-0.765-16.531,8.58-22.958,12.339-34.966
	c13.398,6.337,43.095,0.44,45.249,20.567C328.463,420.638,287.316,428.649,268.406,411.952z M282.803,405.78
	c8.192,3.047,19.922-1.695,22.624-10.281c-5.925-0.246-13.463,1.122-16.455-2.059C287.144,397.785,282.711,399.521,282.803,405.78z"
	/>
<path fill-rule="evenodd" clip-rule="evenodd" d="M564.575,105.497c22.109,0.83,36.977-4.272,59.645,0
	c10.24,1.93,21,11.104,34.965,16.453c34.699,13.298,62.872,20.384,78.157,51.42c30.609,68.335-3.606,191.455-90.498,189.218
	c-0.668,32.911-8.603,79.511-24.681,109.008c3.04,16.426,28.902,27.233,22.625,49.362c-5.717,20.154-47.625,15.842-65.816,22.625
	c-12.483,4.656-20.907,19.992-34.965,28.795c-35.869,22.456-76.739,29.691-111.062,37.021
	c3.422,57.715-47.476,81.737-109.009,86.384c-1.579,19.403,2.661,32.988,2.058,51.416c-11.772,3.548-16.442,1.445-24.68-4.113
	c-1.086-10.286,4.107-24.3,2.055-45.247c-10.953-2.586-43.073,0.762-57.587,2.055c-0.526,11.815,1.54,26.222-2.058,34.965
	c-8.755,1.217-13.603-1.479-20.567-2.056c-2.844-9.497,1.355-17.485,0-30.851c-30.771-5.415-54.381-5.681-82.269-14.396
	c-6.273,9.269,3.091,22.155-4.113,28.794c-8.226,4.269-15.985-0.949-22.625-4.113c-1.907-9.571,2.241-21.368,4.114-32.908
	c-22.594-13.728-56.628-32.01-57.591-74.043c-11.607-4.878-34.911-1.065-41.133-16.456c5.059-17.521,31.518-3.261,41.133,0
	c6.571-11.015,7.977-18.936,14.399-30.85c2.887-5.355,18.398-20.726,18.511-24.681c0.346-12.365-34.148-32.637-32.91-51.417
	c-13.628,4.151-31.793,2.094-41.133-4.114c-2.027-31.452,11.838-52.166,26.736-71.987c-4.201-30.906-2.074-71.529,0-102.836
	c-59.674-17.769-61.532-119.685-6.169-143.973c12.608,4.414,34.344-5.569,51.418,4.114c31.082-53.242,73.477-95.174,127.517-125.46
	c5.238-2.988,5.522-10.933,10.283-14.398C349.35-29.958,504.626,12.679,564.575,105.497z M70.958,457.198
	c1.72,7.192,11.665,6.162,14.397,12.342c-9.231,19.848,10.659,36.047,20.567,49.363c3.696-8.648,11.893-12.787,20.566-16.455
	c1.214-17.428,3.313-33.57,2.058-43.191c4.229-2.729,20.646-3.898,24.68,0c8.022,12.918-7.593,17.89-4.113,32.907
	c36.589-9.087,49.483-7.133,80.212-2.056c3.749-8.952-1.255-14.541,2.059-26.738c25.933-5.785,30.933,10.125,20.566,28.794
	c19.131,6.771,23.976,4.272,45.25,8.228c-0.143-12.878,1.893-10.788,2.056-22.624c8.764-2.953,14.179-4.58,22.624,0
	c2.747,11.33-1.538,14.454-2.055,26.737c50.795,6.793,83.607,31.569,102.837,69.928c29.972-1.422,59.082-60.098,76.099-18.508
	c-23.298,13.72-48.158,25.885-69.929,41.133c55.039-6.663,96.586-26.817,129.574-55.531c-0.186-7.686-2.305-5.863,0-12.341
	c28.682-1.794,21.049-28.37,22.625-45.249c8.172-1.313,11.1,2.609,14.397,6.172c2.706-5.521,5.521-10.934,8.227-16.454
	c-5.078-5.771-19.165-20.221-8.227-28.794c12.424-3.514,9.01,8.814,16.455,10.282c7.476-30.866,16.186-54.388,14.397-90.496
	c-89.208-1.739-181.96-59.585-148.086-170.71c9.857-32.337,33.342-65.535,67.873-78.155
	C498.752,43.478,418.492,5.855,311.597,12.944c-3.439,4.103-8.238,6.847-14.397,8.228c-3.242-0.188-1.61-5.247-6.17-4.114
	c-81.888,27.807-142.705,76.681-180.994,148.085c47.545,4.106,83.784,56.952,61.702,113.122
	c-22.811,25.812-66.851,50.526-109.007,32.906c-3.865,25.043-0.064,63.231-2.059,80.213c6.187,4.576,16.309,2.036,18.513,14.396
	c-9.798,1.174-16.903,5.036-14.397,18.513C90.003,417.645,96.619,447.386,70.958,457.198z M690.036,146.634
	c-8.026-4.499-16.37-2.421-22.623-4.116c-31.642-8.573-49.479-24.736-90.498-18.509c6.931,12.95,16.624,23.143,20.568,39.077
	c9.147-0.918,14.993,1.461,20.567,4.113c8.066-15.383,34.163,2.409,30.852,12.34c9.829,2.125,12.967-0.272,22.625,6.172
	c2.049,5.022,0.68,4.383,2.056,12.341c-6.333,4.931-8.222,3.604-12.341,8.226c8.388,18.484,0.986,28.588,14.397,51.418
	c-6.336-1.538-2.506,7.093-10.283,4.114c4.949,7.547,1.742,10.477-2.056,18.512c-5.487-0.133-16.844-6.29-24.682-10.285
	c5.202,22.209,9.479,54.036,8.228,76.1C741.291,331.804,756.956,184.133,690.036,146.634z M564.575,189.824
	c13.646,1.991,11.312-11.997,18.511-16.454c-6.958-16.353-18.668-27.951-24.682-45.249c-39.328,18.581-62.662,58.978-65.816,106.952
	c-5.501,83.689,64.035,107.793,133.689,115.177c1.975-16.233,2.135-38.635-6.169-67.874c-15.98,16.916-32.965-13.716-47.307-18.509
	c-1.106-7.964,5.243-8.472,6.171-14.396c-2.844-3.328-9.784-2.558-8.227-10.285c0.61-6.932,9.118-5.964,10.284-12.34
	C570.208,218.831,565.545,207.233,564.575,189.824z M64.789,208.333c-1.442-8.739,8.319-12.449,10.284-6.169
	c4.762-7.576,8.274-16.406,10.283-26.737c-8.653,0.945-22.099-2.902-24.683,4.112c-46.19-18.829-62.17,100.47-12.339,111.064
	c-0.55-7.403,3.8-9.912,4.114-16.454c-3.89-8.523-22.671-19.201-12.341-28.795c-4.78-1.389-8.639-3.7-8.228-10.281
	c2.021-2.781,5.49-4.111,8.228-6.172c0.974-6.456-5.536-5.433-6.17-10.282c7.404-5.257,11.322-4.492,12.339-10.286
	C52.165,209.633,55.05,205.036,64.789,208.333z M161.455,241.242c0.662-21.202-14.328-50.79-34.966-53.476
	c-1.127-3.985-8.733-7.966-24.681-8.228c-3.124,6.476-6.137,13.061-8.225,20.568c12.476,3.257,18.603,3.771,26.736,8.226
	c0.094,4.404-9.101,9.833-4.114,12.341c0.612-4.896,4.12,3.733,6.172,4.114c-3.072,6.572,2.172,14.964-4.113,10.285
	c-0.271,5.068-0.312,9.909,2.055,12.34c-2.962,4.551-5.018-2.591-6.169,2.058c7.325,4.464-2.531,3.284,4.114,10.282
	c-12.615,2.281-19.859,23.326-37.021,12.341c-2.794,5.434-3.511,12.944-14.397,10.282c1.457,7.628-3.515,8.827-2.056,16.455
	C102.793,312.232,160.026,286.952,161.455,241.242z M40.107,467.483c7.135,1.65,7.905-3.064,14.396-2.057
	c-2.964-11.501-4.124-23.521-8.228-28.794C43.99,446.686,37.644,452.679,40.107,467.483z M609.823,516.845
	c-6.21,3.566-19.976,3.092-16.453,12.341c9.448-6.322,23.387-8.152,32.908-14.396c-1.567-10.089-5.348-17.961-12.341-22.625
	C608.256,499.286,607.068,505.508,609.823,516.845z M184.079,510.676c-5.693-15.136-28.303-3.659-37.021,2.057
	c-0.149,13.562,0.968,28.389-2.056,39.075c26.923,15.583,53.21,31.803,86.383,41.139c1.597-31.08-2.942-56.02-2.059-86.385
	C212.722,502.811,203.845,506.372,184.079,510.676z M249.895,512.732c0,28.794,0,57.588,0,86.382
	c16.389-1.679,33.629-1.387,53.474-2.057c-2.457-20.795-3.971-53.11-6.169-80.213C283.713,512.171,258.128,510.803,249.895,512.732z
	 M323.936,595.001c23.33,1.371,51.735-4.564,78.157-10.282c-12.824-35.853-38.014-59.339-82.268-63.761
	C319.524,547.31,319.901,572.986,323.936,595.001z M126.489,535.356c-1.125-2.99,2.404-10.631-2.056-10.285
	C121.181,528.119,117.297,535.704,126.489,535.356z M85.355,590.888c17.068-3.897,19.039,4.951,37.021,4.113
	c2.771-11.431,1.418-18.881,2.056-34.966C106.1,533.019,89.661,568.483,85.355,590.888z M142.944,599.114
	c18.174-2.818,40.948,0.837,61.702,0c-20.783-8.695-40.952-18.008-59.644-28.794C140.865,576.468,143.838,589.726,142.944,599.114z
	 M120.319,658.762c-1.295-17.751,3.568-29.341,2.058-47.308c-8.404,0.285-26.94-7.326-39.08-2.055
	C86.24,627.497,98.292,653.02,120.319,658.762z M138.831,669.043c30.47,10.871,49.35,14.503,86.384,14.396
	c-0.381-27.583,7.95-45.249,2.056-69.927c-18.34,3.293-57.692,0.289-84.327,0C139.364,628.879,142.424,654.935,138.831,669.043z
	 M245.781,681.384c24.499,5.315,32.154-1.225,57.587,0c0-19.88,0-39.763,0-59.644c-20.132-0.437-34.971-6.164-53.474-8.228
	C248.479,636.048,248.053,655.999,245.781,681.384z M323.936,621.74c0,19.195,0,38.39,0,57.588
	c44.238-2.988,83.416-21.495,86.385-63.76C387.938,616.619,348.683,625.358,323.936,621.74z M130.604,638.193
	c-4.104-4.804,3.836-11.589-2.058-16.453C130.116,629.076,122.173,635.861,130.604,638.193z"/>
</svg>
