<?xml version="1.0" encoding="utf-8"?>
<!-- Generator: Adobe Illustrator 15.0.0, SVG Export Plug-In  -->
<!DOCTYPE svg PUBLIC "-//W3C//DTD SVG 1.1//EN" "http://www.w3.org/Graphics/SVG/1.1/DTD/svg11.dtd" [
	<!ENTITY ns_flows "http://ns.adobe.com/Flows/1.0/">
]>
<svg version="1.1"
	 xmlns="http://www.w3.org/2000/svg" xmlns:xlink="http://www.w3.org/1999/xlink" xmlns:a="http://ns.adobe.com/AdobeSVGViewerExtensions/3.0/"
	 x="0px" y="0px" width="750px" height="750px" viewBox="-13.68 -13.392 750 750"
	 overflow="visible" enable-background="new -13.68 -13.392 750 750" xml:space="preserve">
<defs>
</defs>
<path fill-rule="evenodd" clip-rule="evenodd" d="M259.186,397.801c-0.739-15.963,8.285-22.17,11.915-33.766
	c12.938,6.119,41.615,0.426,43.694,19.861C317.181,406.188,277.446,413.924,259.186,397.801z M273.088,391.84
	c7.911,2.943,19.238-1.637,21.846-9.928c-5.721-0.238-13,1.084-15.89-1.988C277.28,384.12,272.999,385.795,273.088,391.84z"/>
<path fill-rule="evenodd" clip-rule="evenodd" d="M545.18,101.873c21.35,0.802,35.709-4.125,57.595,0
	c9.889,1.863,20.281,10.723,33.766,15.888c33.508,12.841,60.713,19.684,75.472,49.654c29.559,65.988-3.482,184.878-87.389,182.718
	c-0.645,31.78-8.308,76.778-23.832,105.262c2.936,15.861,27.909,26.299,21.847,47.666c-5.521,19.463-45.987,15.297-63.555,21.848
	c-12.057,4.498-20.188,19.307-33.765,27.807c-34.634,21.686-74.102,28.672-107.246,35.748
	c3.305,55.734-45.846,78.932-105.265,83.418c-1.525,18.736,2.57,31.854,1.987,49.648c-11.368,3.426-15.877,1.396-23.832-3.971
	c-1.049-9.932,3.966-23.465,1.985-43.693c-10.577-2.496-41.593,0.736-55.609,1.984c-0.508,11.41,1.487,25.32-1.988,33.764
	c-8.454,1.176-13.135-1.428-19.86-1.984c-2.746-9.172,1.309-16.885,0-29.793c-29.714-5.229-52.513-5.484-79.442-13.9
	c-6.058,8.949,2.984,21.393-3.972,27.807c-7.944,4.119-15.436-0.92-21.848-3.973c-1.841-9.244,2.164-20.635,3.973-31.779
	c-21.818-13.254-54.683-30.91-55.612-71.498c-11.209-4.711-33.712-1.031-39.721-15.891c4.886-16.922,30.436-3.15,39.721,0
	c6.344-10.637,7.703-18.285,13.904-29.791c2.789-5.17,17.767-20.014,17.875-23.832c0.334-11.941-32.975-31.518-31.779-49.65
	c-13.16,4.006-30.701,2.021-39.721-3.973c-1.958-30.373,11.432-50.375,25.818-69.516c-4.057-29.845-2.002-69.072,0-99.303
	c-57.624-17.157-59.418-115.572-5.957-139.027c12.175,4.263,33.165-5.377,49.652,3.974c30.014-51.414,70.954-91.905,123.136-121.151
	c5.059-2.884,5.333-10.556,9.931-13.903C337.349-28.928,487.292,12.243,545.18,101.873z M68.521,441.493
	c1.661,6.945,11.265,5.949,13.903,11.918c-8.915,19.166,10.292,34.809,19.86,47.666c3.569-8.352,11.484-12.346,19.86-15.889
	c1.172-16.828,3.198-32.418,1.987-41.707c4.084-2.637,19.936-3.766,23.832,0c7.747,12.473-7.333,17.273-3.972,31.775
	c35.332-8.773,47.782-6.887,77.457-1.984c3.62-8.645-1.212-14.041,1.987-25.82c25.042-5.586,29.871,9.777,19.859,27.805
	c18.474,6.539,23.152,4.127,43.695,7.945c-0.138-12.436,1.828-10.416,1.985-21.846c8.463-2.854,13.693-4.422,21.848,0
	c2.652,10.939-1.486,13.957-1.985,25.818c49.05,6.559,80.735,30.484,99.303,67.525c28.942-1.373,57.052-58.033,73.485-17.873
	c-22.498,13.25-46.503,24.996-67.527,39.721c53.148-6.434,93.268-25.896,125.125-53.625c-0.182-7.422-2.228-5.66,0-11.916
	c27.694-1.732,20.324-27.395,21.844-43.695c7.894-1.268,10.721,2.521,13.905,5.961c2.61-5.332,5.331-10.557,7.943-15.889
	c-4.905-5.574-18.507-19.525-7.943-27.805c11.996-3.393,8.699,8.514,15.889,9.93c7.219-29.807,15.629-52.521,13.901-87.388
	c-86.143-1.68-175.709-57.538-142.996-164.846c9.516-31.226,32.194-63.284,65.539-75.47C481.62,41.984,404.116,5.654,300.893,12.5
	c-3.322,3.96-7.955,6.611-13.902,7.944c-3.13-0.18-1.554-5.066-5.957-3.972C201.958,43.323,143.23,90.519,106.256,159.47
	c45.912,3.965,80.906,54.996,59.583,109.235c-22.027,24.927-64.554,48.791-105.262,31.776c-3.733,24.183-0.062,61.061-1.988,77.457
	c5.974,4.42,15.748,1.967,17.877,13.902c-9.461,1.135-16.322,4.863-13.903,17.877C86.911,403.297,93.301,432.018,68.521,441.493z
	 M666.332,141.597c-7.751-4.344-15.809-2.337-21.847-3.975c-30.555-8.278-47.777-23.887-87.39-17.873
	c6.695,12.505,16.055,22.348,19.862,37.735c8.832-0.887,14.479,1.411,19.862,3.972c7.788-14.854,32.987,2.327,29.791,11.917
	c9.491,2.052,12.521-0.264,21.846,5.959c1.982,4.85,0.659,4.232,1.987,11.917c-6.116,4.761-7.939,3.481-11.919,7.943
	c8.101,17.85,0.954,27.606,13.903,49.652c-6.119-1.485-2.421,6.85-9.93,3.973c4.777,7.288,1.685,10.118-1.984,17.876
	c-5.299-0.128-16.267-6.074-23.836-9.931c5.024,21.446,9.153,52.179,7.945,73.484C715.825,320.405,730.952,177.808,666.332,141.597z
	 M545.18,183.303c13.178,1.923,10.924-11.584,17.877-15.889c-6.721-15.792-18.027-26.991-23.833-43.695
	c-37.979,17.942-60.511,56.952-63.557,103.278c-5.312,80.815,61.835,104.09,129.096,111.22c1.907-15.676,2.062-37.308-5.957-65.542
	c-15.432,16.335-31.833-13.245-45.682-17.873c-1.068-7.69,5.061-8.181,5.959-13.902c-2.747-3.213-9.448-2.47-7.944-9.932
	c0.588-6.694,8.805-5.759,9.929-11.917C550.62,211.314,546.118,200.115,545.18,183.303z M62.563,201.176
	c-1.393-8.439,8.035-12.021,9.931-5.957c4.598-7.316,7.99-15.842,9.931-25.819c-8.356,0.914-21.34-2.803-23.835,3.972
	C13.985,155.19-1.445,270.39,46.674,280.621c-0.531-7.149,3.669-9.572,3.973-15.889c-3.756-8.23-21.893-18.542-11.917-27.806
	c-4.616-1.34-8.342-3.572-7.945-9.928c1.951-2.686,5.301-3.97,7.945-5.96c0.94-6.234-5.345-5.245-5.958-9.928
	c7.15-5.077,10.933-4.338,11.915-9.933C50.373,202.431,53.159,197.993,62.563,201.176z M155.909,232.956
	c0.639-20.474-13.836-49.045-33.764-51.639c-1.089-3.849-8.434-7.692-23.833-7.945c-3.016,6.253-5.926,12.611-7.943,19.861
	c12.048,3.145,17.963,3.642,25.817,7.943c0.091,4.253-8.788,9.495-3.972,11.917c0.59-4.729,3.979,3.605,5.959,3.973
	c-2.967,6.346,2.098,14.45-3.972,9.932c-0.262,4.894-0.302,9.568,1.984,11.916c-2.86,4.394-4.846-2.502-5.957,1.987
	c7.073,4.311-2.444,3.171,3.973,9.929c-12.182,2.204-19.177,22.525-35.75,11.917c-2.698,5.247-3.391,12.5-13.903,9.929
	c1.407,7.367-3.394,8.524-1.985,15.89C99.262,301.507,154.53,277.094,155.909,232.956z M38.729,451.422
	c6.891,1.596,7.634-2.957,13.902-1.982c-2.862-11.107-3.982-22.715-7.945-27.807C42.479,431.34,36.351,437.127,38.729,451.422z
	 M588.874,499.09c-5.995,3.443-19.291,2.984-15.887,11.916c9.122-6.105,22.583-7.873,31.776-13.902
	c-1.514-9.742-5.164-17.342-11.919-21.848C587.362,482.133,586.213,488.143,588.874,499.09z M177.756,493.133
	c-5.498-14.617-27.33-3.533-35.75,1.986c-0.144,13.096,0.935,27.412-1.985,37.732c25.999,15.047,51.382,30.709,83.416,39.727
	c1.542-30.014-2.841-54.098-1.987-83.418C205.415,485.538,196.842,488.977,177.756,493.133z M241.31,495.12
	c0,27.803,0,55.609,0,83.414c15.826-1.621,32.475-1.34,51.638-1.986c-2.373-20.082-3.835-51.287-5.958-77.457
	C273.967,494.577,249.261,493.254,241.31,495.12z M312.808,574.561c22.528,1.324,49.958-4.408,75.472-9.93
	c-12.385-34.621-36.708-57.299-79.442-61.57C308.548,528.508,308.912,553.303,312.808,574.561z M122.145,516.965
	c-1.086-2.887,2.321-10.266-1.985-9.93C117.019,509.977,113.269,517.301,122.145,516.965z M82.424,570.59
	c16.481-3.766,18.384,4.779,35.749,3.971c2.677-11.039,1.369-18.232,1.986-33.764C102.456,514.708,86.58,548.954,82.424,570.59z
	 M138.034,578.534c17.55-2.723,39.542,0.807,59.583,0c-20.069-8.396-39.546-17.389-57.596-27.805
	C136.027,556.665,138.898,569.467,138.034,578.534z M116.186,636.133c-1.25-17.143,3.446-28.334,1.988-45.686
	c-8.116,0.275-26.014-7.074-37.738-1.984C83.278,605.94,94.916,630.586,116.186,636.133z M134.062,646.059
	c29.424,10.498,47.655,14.004,83.416,13.902c-0.369-26.635,7.677-43.695,1.986-67.523c-17.71,3.178-55.71,0.277-81.43,0
	C134.578,607.276,137.532,632.436,134.062,646.059z M237.338,657.977c23.656,5.133,31.049-1.186,55.609,0
	c0-19.197,0-38.398,0-57.596c-19.44-0.422-33.77-5.951-51.638-7.943C239.943,614.198,239.532,633.463,237.338,657.977z
	 M312.808,600.381c0,18.535,0,37.072,0,55.609c42.719-2.885,80.55-20.754,83.417-61.568
	C374.613,595.436,336.705,603.877,312.808,600.381z M126.119,616.27c-3.963-4.639,3.704-11.191-1.987-15.889
	C125.646,607.465,117.977,614.018,126.119,616.27z"/>
</svg>
