<?xml version="1.0" encoding="utf-8"?>
<!-- Generator: Adobe Illustrator 15.0.0, SVG Export Plug-In  -->
<!DOCTYPE svg PUBLIC "-//W3C//DTD SVG 1.1//EN" "http://www.w3.org/Graphics/SVG/1.1/DTD/svg11.dtd" [
	<!ENTITY ns_flows "http://ns.adobe.com/Flows/1.0/">
]>
<svg version="1.1"
	 xmlns="http://www.w3.org/2000/svg" xmlns:xlink="http://www.w3.org/1999/xlink" xmlns:a="http://ns.adobe.com/AdobeSVGViewerExtensions/3.0/"
	 x="0px" y="0px" width="1000px" height="1000px" viewBox="-11.173 -9.606 1000 1000"
	 overflow="visible" enable-background="new -11.173 -9.606 1000 1000" xml:space="preserve">
<defs>
</defs>
<path fill-rule="evenodd" clip-rule="evenodd" d="M350.65,538.182c-0.999-21.597,11.209-29.993,16.12-45.681
	c17.504,8.279,56.3,0.576,59.113,26.87C429.111,549.527,375.354,559.994,350.65,538.182z M369.459,530.118
	c10.702,3.98,26.026-2.215,29.556-13.432c-7.74-0.322-17.589,1.465-21.498-2.689C375.13,519.673,369.338,521.94,369.459,530.118z"/>
<path fill-rule="evenodd" clip-rule="evenodd" d="M737.571,137.823c28.883,1.084,48.309-5.582,77.92,0
	c13.377,2.521,27.436,14.507,45.68,21.494c45.332,17.373,82.137,26.63,102.105,67.176c39.99,89.275-4.711,250.121-118.229,247.198
	c-0.871,42.996-11.238,103.874-32.242,142.41c3.973,21.459,37.758,35.579,29.557,64.487c-7.469,26.33-62.217,20.695-85.982,29.558
	c-16.311,6.083-27.312,26.118-45.68,37.619c-46.857,29.338-100.252,38.789-145.092,48.364
	c4.471,75.4-62.025,106.784-142.413,112.854c-2.063,25.349,3.476,43.097,2.688,67.171c-15.379,4.635-21.48,1.889-32.242-5.373
	c-1.418-13.438,5.366-31.745,2.686-59.111c-14.31-3.379-56.271,0.994-75.233,2.684c-0.688,15.436,2.012,34.257-2.689,45.679
	c-11.438,1.59-17.771-1.932-26.869-2.685c-3.715-12.408,1.771-22.844,0-40.305c-40.199-7.074-71.043-7.422-107.477-18.808
	c-8.195,12.108,4.038,28.943-5.373,37.617c-10.747,5.575-20.883-1.24-29.558-5.374c-2.491-12.505,2.927-27.915,5.375-42.992
	c-29.518-17.933-73.98-41.818-75.237-96.73c-15.164-6.373-45.608-1.393-53.737-21.499c6.609-22.89,41.176-4.261,53.737,0
	c8.583-14.391,10.421-24.737,18.812-40.302c3.772-6.997,24.036-27.075,24.183-32.242c0.452-16.155-44.613-42.64-42.995-67.174
	c-17.805,5.423-41.535,2.736-53.737-5.374c-2.648-41.09,15.465-68.151,34.928-94.046c-5.488-40.376-2.709-93.447,0-134.347
	c-77.959-23.213-80.386-156.357-8.059-188.089c16.472,5.767,44.868-7.275,67.174,5.375
	c40.606-69.557,95.992-124.337,166.591-163.903c6.843-3.903,7.214-14.282,13.434-18.81
	C456.397-39.137,659.253,16.563,737.571,137.823z M92.702,597.292c2.247,9.396,15.239,8.05,18.809,16.123
	c-12.06,25.93,13.925,47.093,26.869,64.488c4.828-11.298,15.537-16.704,26.868-21.497c1.586-22.768,4.328-43.857,2.689-56.425
	c5.525-3.565,26.972-5.094,32.242,0c10.48,16.876-9.92,23.37-5.374,42.99c47.801-11.871,64.646-9.318,104.791-2.686
	c4.897-11.696-1.639-18.996,2.689-34.933c33.879-7.557,40.412,13.229,26.867,37.618c24.993,8.847,31.323,5.582,59.115,10.749
	c-0.186-16.825,2.473-14.095,2.686-29.557c11.449-3.858,18.524-5.983,29.556,0c3.588,14.802-2.009,18.883-2.685,34.93
	c66.359,8.874,109.226,41.242,134.347,91.354c39.156-1.857,77.186-78.513,99.418-24.18c-30.438,17.925-62.914,33.816-91.357,53.737
	c71.904-8.705,126.182-35.035,169.279-72.548c-0.244-10.04-3.012-7.658,0-16.121c37.469-2.345,27.498-37.063,29.555-59.114
	c10.678-1.716,14.502,3.409,18.811,8.063c3.533-7.213,7.213-14.283,10.748-21.496c-6.637-7.54-25.039-26.416-10.748-37.617
	c16.23-4.59,11.77,11.517,21.496,13.433c9.766-40.323,21.145-71.053,18.809-118.225c-116.543-2.273-237.717-77.843-193.461-223.019
	c12.875-42.246,43.557-85.616,88.67-102.104C651.579,56.799,546.726,7.649,407.076,16.911c-4.494,5.359-10.763,8.944-18.809,10.748
	c-4.235-0.244-2.103-6.854-8.06-5.375C273.228,58.611,193.774,122.461,143.753,215.746c62.114,5.364,109.457,74.403,80.608,147.784
	c-29.799,33.722-87.335,66.009-142.408,42.99c-5.049,32.716-0.083,82.607-2.689,104.792c8.082,5.979,21.306,2.66,24.186,18.808
	c-12.801,1.533-22.082,6.579-18.809,24.186C117.582,545.618,126.225,584.473,92.702,597.292z M901.476,191.565
	c-10.486-5.878-21.387-3.163-29.557-5.377c-41.338-11.201-64.639-32.316-118.229-24.181c9.057,16.919,21.721,30.234,26.871,51.051
	c11.949-1.2,19.588,1.909,26.871,5.374c10.537-20.096,44.629,3.148,40.305,16.121c12.84,2.776,16.939-0.355,29.557,8.063
	c2.68,6.562,0.891,5.726,2.686,16.122c-8.273,6.442-10.74,4.709-16.123,10.746c10.959,24.148,1.289,37.348,18.809,67.174
	c-8.279-2.009-3.275,9.266-13.434,5.375c6.465,9.859,2.277,13.687-2.686,24.184c-7.168-0.174-22.006-8.217-32.246-13.437
	c6.797,29.014,12.383,70.594,10.748,99.417C968.435,433.474,988.899,240.554,901.476,191.565z M737.571,247.989
	c17.828,2.602,14.777-15.672,24.184-21.496c-9.092-21.363-24.389-36.515-32.244-59.114c-51.379,24.274-81.863,77.049-85.984,139.724
	c-7.188,109.334,83.656,140.823,174.654,150.469c2.578-21.208,2.789-50.473-8.061-88.672c-20.877,22.1-43.066-17.918-61.803-24.18
	c-1.445-10.404,6.848-11.067,8.062-18.808c-3.717-4.348-12.783-3.341-10.748-13.436c0.797-9.056,11.912-7.792,13.434-16.122
	C744.929,285.885,738.839,270.733,737.571,247.989z M84.641,272.169c-1.884-11.417,10.869-16.264,13.435-8.059
	c6.221-9.898,10.81-21.434,13.434-34.931c-11.305,1.235-28.87-3.792-32.246,5.373c-60.344-24.598-81.221,131.255-16.12,145.097
	c-0.719-9.672,4.964-12.949,5.375-21.496c-5.082-11.135-29.619-25.085-16.123-37.619c-6.245-1.814-11.286-4.833-10.749-13.432
	c2.64-3.633,7.171-5.371,10.749-8.063c1.272-8.434-7.232-7.097-8.061-13.433c9.673-6.868,14.792-5.869,16.12-13.438
	C68.149,273.868,71.918,267.863,84.641,272.169z M210.928,315.163c0.864-27.699-18.718-66.353-45.68-69.861
	c-1.473-5.207-11.409-10.407-32.243-10.749c-4.081,8.46-8.018,17.062-10.745,26.871c16.298,4.254,24.302,4.927,34.927,10.746
	c0.123,5.754-11.89,12.846-5.374,16.123c0.8-6.397,5.383,4.877,8.063,5.375c-4.014,8.586,2.837,19.549-5.374,13.437
	c-0.354,6.622-0.408,12.945,2.685,16.121c-3.869,5.945-6.555-3.385-8.059,2.688c9.569,5.832-3.306,4.291,5.375,13.433
	c-16.48,2.981-25.944,30.474-48.365,16.123c-3.65,7.098-4.587,16.911-18.81,13.433c1.904,9.966-4.591,11.532-2.686,21.498
	C134.291,407.906,209.061,374.879,210.928,315.163z M52.396,610.728c9.322,2.157,10.328-4.003,18.808-2.686
	c-3.873-15.025-5.387-30.729-10.749-37.618C57.469,583.557,49.178,591.387,52.396,610.728z M796.683,675.215
	c-8.111,4.659-26.098,4.038-21.494,16.122c12.342-8.26,30.553-10.65,42.992-18.809c-2.049-13.179-6.988-23.464-16.125-29.557
	C794.638,652.275,793.085,660.404,796.683,675.215z M240.484,667.155c-7.438-19.773-36.975-4.779-48.366,2.688
	c-0.194,17.717,1.265,37.086-2.686,51.048c35.173,20.357,69.515,41.547,112.852,53.745c2.086-40.604-3.844-73.186-2.689-112.854
	C277.904,656.88,266.306,661.533,240.484,667.155z M326.467,669.843c0,37.615,0,75.233,0,112.851
	c21.411-2.193,43.935-1.812,69.86-2.688c-3.21-27.167-5.188-69.384-8.06-104.791C370.648,669.108,337.224,667.321,326.467,669.843z
	 M423.195,777.319c30.478,1.792,67.587-5.964,102.104-13.433c-16.754-46.839-49.661-77.521-107.476-83.299
	C417.433,715.015,417.925,748.559,423.195,777.319z M165.248,699.398c-1.47-3.906,3.141-13.888-2.686-13.436
	C158.314,689.943,153.24,699.854,165.248,699.398z M111.51,771.946c22.298-5.093,24.872,6.468,48.366,5.373
	c3.621-14.934,1.853-24.666,2.686-45.68C138.611,696.345,117.134,742.677,111.51,771.946z M186.744,782.693
	c23.744-3.684,53.496,1.093,80.608,0c-27.151-11.359-53.5-23.525-77.92-37.617C184.029,753.107,187.914,770.428,186.744,782.693z
	 M157.187,860.618c-1.692-23.191,4.662-38.331,2.689-61.805c-10.98,0.373-35.195-9.57-51.055-2.685
	C112.666,819.771,128.411,853.116,157.187,860.618z M181.371,874.049c39.807,14.202,64.472,18.946,112.853,18.809
	c-0.499-36.035,10.386-59.115,2.686-91.354c-23.959,4.302-75.37,0.376-110.166,0C182.068,821.578,186.065,855.618,181.371,874.049z
	 M321.093,890.171c32.005,6.945,42.006-1.601,75.233,0c0-25.971,0-51.946,0-77.92c-26.301-0.569-45.687-8.052-69.86-10.747
	C324.617,830.943,324.061,857.009,321.093,890.171z M423.195,812.251c0,25.078,0,50.154,0,75.234
	c57.793-3.904,108.976-28.08,112.854-83.296C506.81,805.562,455.526,816.979,423.195,812.251z M170.625,833.747
	c-5.361-6.275,5.012-15.14-2.688-21.496C169.985,821.836,159.61,830.7,170.625,833.747z"/>
</svg>
